<svg width="98" height="70" viewBox="0 0 98 70" fill="none" xmlns="http://www.w3.org/2000/svg">
<path d="M8.72603 0H0V68.4658H8.72603V0Z" fill="#E9B05A"/>
<path d="M30.0376 68.4658L21.4794 68.461L34.3167 0H42.8749L55.7123 68.461H47.154L38.6053 21.386L30.0376 68.4658Z" fill="#E9B05A"/>
<path d="M63.7767 0.0141925C63.7767 16.9979 63.772 33.9817 63.7672 50.9654C63.734 64.5808 69.8743 69.1886 80.8812 69.1366C91.8882 69.0845 97.981 64.4483 98 50.9181V0C95.1484 0.00473084 92.2874 0.0141925 89.4311 0.0189234C89.4311 16.9932 89.4311 33.9722 89.4311 50.9465C89.4739 57.792 87.8485 62.2059 80.848 62.2295C73.6858 62.2532 72.3076 57.792 72.3409 50.9465C72.3361 33.9722 72.3313 16.9932 72.3266 0.0189234C69.4751 0.0189234 66.6283 0.0189234 63.7767 0.0189234V0.0141925Z" fill="#E9B05A"/>
</svg>
